<?xml version="1.0" encoding="UTF-8" standalone="no" ?>
<!DOCTYPE svg PUBLIC "-//W3C//DTD SVG 1.1//EN" "http://www.w3.org/Graphics/SVG/1.1/DTD/svg11.dtd">
<svg xmlns="http://www.w3.org/2000/svg" xmlns:xlink="http://www.w3.org/1999/xlink" version="1.1" width="56" height="56" viewBox="0 0 56 56" xml:space="preserve">
<desc>Created with Fabric.js 5.3.0</desc>
<defs>
</defs>
<g transform="matrix(1.4 0 0 1.4 28.0936329588 27.9063670412)" id="GruR_VrBh9_bz7Nl8sL2V"  >
<g style=""   >
		<g transform="matrix(1 0 0 1 0 0)" id="39pF6FmGuTpN_FTQk2rBE"  >
<radialGradient id="SVGID_0" gradientUnits="objectBoundingBox" gradientTransform="matrix(1 0 0 1 0 0)"  cx="1.0390000000000001" cy="-0.10387" r="1.66816" fx="1.0390000000000001" fy="-0.10387">
<stop offset="0%" style="stop-color:rgb(232,77,112);stop-opacity: 1"/>
<stop offset="53.089%" style="stop-color:rgb(163,55,246);stop-opacity: 1"/>
<stop offset="100%" style="stop-color:rgb(40,167,237);stop-opacity: 1"/>
</radialGradient>
<path style="stroke: none; strokeWidth: 1; stroke-dasharray: none; stroke-linecap: butt; stroke-dashoffset: 0; stroke-linejoin: miter; stroke-miterlimit: 4; fill: url(#SVGID_0); fill-rule: nonzero; opacity: 1;"  transform=" translate(-20, -20)" d="M 0 20 C 0 8.95431 8.95431 0 20 0 C 31.04569 0 40 8.95431 40 20 C 40 31.04569 31.04569 40 20 40 C 8.95431 40 0 31.04569 0 20 z" stroke-linecap="round" />
</g>
		<g transform="matrix(1 0 0 1 -0.5 0.5)" id="FtNOpHrSVPs2UMadqJ8EO"  >
<path style="stroke: none; strokeWidth: 1; stroke-dasharray: none; stroke-linecap: butt; stroke-dashoffset: 0; stroke-linejoin: miter; stroke-miterlimit: 4; fill: rgb(255,255,255); fill-rule: nonzero; opacity: 1;"  transform=" translate(-19.5, -20.5)" d="M 19.512 15.367 L 24.487000000000002 19.897000000000002 L 20.687 25.437 L 11.226 29 L 15.711000000000002 24.9 C 16.470000000000002 25.174999999999997 17.542 24.926 18.122000000000003 24.305999999999997 C 18.488704308961662 23.91967788340697 18.682192499179568 23.40063141190203 18.657852014182616 22.86853708871292 C 18.633511529185668 22.33644276552381 18.39344335815686 21.837229191395053 17.993000000000002 21.485999999999997 C 17.157000000000004 20.740999999999996 15.794000000000002 20.740999999999996 15.029000000000002 21.554 C 14.459000000000001 22.160999999999998 14.262000000000002 23.229999999999997 14.589000000000002 23.935 L 11 28.713 C 11.255 27.653000000000002 11.683 25.963 12.115 24.277 L 12.252 23.746000000000002 C 12.91 21.183000000000003 13.539000000000001 18.782000000000004 13.539000000000001 18.782000000000004 L 19.512 15.367000000000004 z M 23.257 12 L 28 16.443 L 25.416 19.049 L 20.526 14.466 L 23.257 12 z" stroke-linecap="round" />
</g>
</g>
</g>
</svg>